<?xml version="1.0" encoding="utf-8"?>
<!-- Generator: Adobe Illustrator 16.0.0, SVG Export Plug-In . SVG Version: 6.00 Build 0)  -->
<!DOCTYPE svg PUBLIC "-//W3C//DTD SVG 1.1//EN" "http://www.w3.org/Graphics/SVG/1.1/DTD/svg11.dtd">
<svg version="1.1" id="Layer_1" xmlns="http://www.w3.org/2000/svg" xmlns:xlink="http://www.w3.org/1999/xlink" x="0px" y="0px"
	 width="300px" height="300px" viewBox="0 0 300 300" enable-background="new 0 0 300 300" xml:space="preserve">
<circle fill="#25D366" cx="150" cy="150" r="150"/>
<path fill="#FFFFFF" d="M194.669,165.858l-0.071,0.604c-17.684-8.813-19.531-9.987-21.815-6.563
	c-1.584,2.372-6.198,7.751-7.59,9.345c-1.408,1.566-2.808,1.688-5.195,0.602c-2.412-1.205-10.156-3.737-19.321-11.94
	c-7.142-6.393-11.934-14.233-13.35-16.645c-2.356-4.069,2.573-4.647,7.06-13.139c0.805-1.689,0.395-3.016-0.201-4.213
	c-0.603-1.206-5.403-13.027-7.415-17.739c-1.928-4.695-3.915-4.1-5.404-4.1c-4.629-0.402-8.016-0.338-10.998,2.766
	c-12.979,14.265-9.707,28.98,1.399,44.628c21.822,28.561,33.448,33.818,54.709,41.12c5.743,1.826,10.976,1.569,15.117,0.974
	c4.615-0.731,14.209-5.798,16.21-11.466c2.051-5.67,2.051-10.373,1.447-11.458C198.659,167.547,197.082,166.944,194.669,165.858z"/>
<path fill="#FFFFFF" d="M218.897,78.55C157.069,18.782,54.75,62.13,54.709,146.448c0,16.854,4.415,33.29,12.824,47.803L53.897,243.8
	l50.938-13.282c63.564,34.332,142.013-11.26,142.045-84.021c0-25.539-9.972-49.574-28.104-67.633L218.897,78.55z M230.814,146.231
	c-0.049,61.375-67.424,99.708-120.712,68.38l-2.894-1.722l-30.154,7.842l8.081-29.311l-1.922-3.017
	C50.053,135.617,88.15,66.625,150.966,66.625c21.343,0,41.371,8.322,56.457,23.398C222.499,104.973,230.814,125.003,230.814,146.231
	L230.814,146.231z"/>
</svg>
